<svg xmlns="http://www.w3.org/2000/svg" viewBox="0 0 32 32" width="32" height="32">
  <defs>
    <linearGradient id="bg" x1="0%" y1="0%" x2="100%" y2="100%">
      <stop offset="0%" style="stop-color:#000000"/>
      <stop offset="100%" style="stop-color:#1a1a1a"/>
    </linearGradient>
    <linearGradient id="runner" x1="0%" y1="0%" x2="100%" y2="100%">
      <stop offset="0%" style="stop-color:#00ff00"/>
      <stop offset="100%" style="stop-color:#00aa00"/>
    </linearGradient>
  </defs>
  
  <!-- Background -->
  <rect width="32" height="32" rx="6" fill="url(#bg)"/>
  
  <!-- Territory grid pattern -->
  <g stroke="#333" stroke-width="0.5" opacity="0.3">
    <line x1="8" y1="0" x2="8" y2="32"/>
    <line x1="16" y1="0" x2="16" y2="32"/>
    <line x1="24" y1="0" x2="24" y2="32"/>
    <line x1="0" y1="8" x2="32" y2="8"/>
    <line x1="0" y1="16" x2="32" y2="16"/>
    <line x1="0" y1="24" x2="32" y2="24"/>
  </g>
  
  <!-- Running figure -->
  <g fill="url(#runner)">
    <!-- Head -->
    <circle cx="16" cy="8" r="2.5"/>
    <!-- Body -->
    <rect x="14.5" y="10" width="3" height="8" rx="1"/>
    <!-- Arms -->
    <rect x="11" y="12" width="2" height="4" rx="1" transform="rotate(-20 12 14)"/>
    <rect x="19" y="12" width="2" height="4" rx="1" transform="rotate(20 20 14)"/>
    <!-- Legs -->
    <rect x="13" y="18" width="2" height="6" rx="1" transform="rotate(-10 14 21)"/>
    <rect x="17" y="18" width="2" height="6" rx="1" transform="rotate(15 18 21)"/>
  </g>
  
  <!-- Territory markers -->
  <circle cx="6" cy="6" r="1" fill="#ff6b35" opacity="0.8"/>
  <circle cx="26" cy="10" r="1" fill="#4ecdc4" opacity="0.8"/>
  <circle cx="8" cy="26" r="1" fill="#a18cd1" opacity="0.8"/>
  
  <!-- Route path -->
  <path d="M4 28 Q16 20 28 4" stroke="#00ff88" stroke-width="1.5" fill="none" opacity="0.6" stroke-dasharray="2,1"/>
</svg>
